<svg xmlns="http://www.w3.org/2000/svg" width="60" height="60" viewBox="0 0 60 60">
    <g fill="none" fill-rule="evenodd">
        <g>
            <g>
                <g>
                    <g>
                        <path fill="#F37820" d="M49.605 24.805c0 13.705-11.1 24.805-24.8 24.805C11.105 49.61 0 38.51 0 24.805 0 11.11 11.105 0 24.805 0s24.8 11.11 24.8 24.805" transform="translate(-994.000000, -852.000000) translate(79.000000, 852.000000) translate(375.000000, 0.000000) translate(540.000000, 0.000000) translate(5.000000, 5.000000)"/>
                        <path stroke="#FEFEFE" stroke-width="2.495" d="M44.648 24.805c0 10.965-8.885 19.85-19.85 19.85-10.954 0-19.844-8.885-19.844-19.85 0-10.96 8.89-19.845 19.845-19.845 10.965 0 19.85 8.885 19.85 19.845z" transform="translate(-994.000000, -852.000000) translate(79.000000, 852.000000) translate(375.000000, 0.000000) translate(540.000000, 0.000000) translate(5.000000, 5.000000)"/>
                        <path stroke="#FEFEFE" stroke-linecap="round" stroke-linejoin="round" stroke-width="2.25" d="M24.788 35.983c-2.864.005-5.73-1.09-7.92-3.275-4.37-4.375-4.374-11.455-.005-15.82m7.91-3.295c2.87-.005 5.74 1.09 7.93 3.28 4.37 4.37 4.37 11.455 0 15.825M18.422 21.622v-5.87m-5.96 0h5.87M30.978 27.985v5.87m5.96 0h-5.87" transform="translate(-994.000000, -852.000000) translate(79.000000, 852.000000) translate(375.000000, 0.000000) translate(540.000000, 0.000000) translate(5.000000, 5.000000)"/>
                    </g>
                </g>
            </g>
        </g>
    </g>
</svg>
