<svg width="35" height="35" xmlns="http://www.w3.org/2000/svg">
    <g fill="none" fill-rule="evenodd">
        <path d="M32.083 17.5c0 8.057-6.526 14.583-14.582 14.583-8.055 0-14.584-6.526-14.584-14.583 0-8.052 6.53-14.583 14.584-14.583 8.056 0 14.582 6.531 14.582 14.583" fill="#00A0DD"/>
        <path d="M28.583 17.207c0 6.282-5.094 11.376-11.376 11.376-6.28 0-11.374-5.094-11.374-11.376 0-6.283 5.094-11.374 11.374-11.374 6.282 0 11.376 5.091 11.376 11.374z" stroke="#FEFEFE" stroke-width="2.5"/>
        <path d="M25.083 21.034s-3.793 3.86-7.589.003c-3.787-3.854-7.577 0-7.577 0m15.166-3.522s-3.793 3.86-7.589.003c-3.787-3.851-7.577 0-7.577 0m15.166-3.56s-3.793 3.86-7.589.006c-3.787-3.857-7.577 0-7.577 0" stroke="#FEFEFE" stroke-width="1.764" stroke-linecap="round"/>
    </g>
</svg>
