<svg xmlns="http://www.w3.org/2000/svg" width="60" height="60" viewBox="0 0 60 60">
    <g fill="none" fill-rule="evenodd">
        <g>
            <g>
                <path fill="#2F9B68" d="M55.03 29.935c0 13.7-11.1 24.805-24.8 24.805-13.7 0-24.805-11.105-24.805-24.805C5.425 16.24 16.53 5.13 30.23 5.13s24.8 11.11 24.8 24.805" transform="translate(-375) translate(375)"/>
                <path stroke="#FEFEFE" stroke-width="1.745" d="M50.074 29.935c0 10.96-8.886 19.85-19.85 19.85-10.956 0-19.845-8.89-19.845-19.85s8.89-19.845 19.845-19.845c10.964 0 19.85 8.885 19.85 19.845z" transform="translate(-375) translate(375)"/>
                <path fill="#FFF" d="M38.511 22.552c2.015 4.564 2.41 8.513 1.183 11.85-1.265 3.441-3.926 5.908-7.981 7.4 1.949-2.42 3.059-4.209 3.329-5.368.27-1.16.27-2.58 0-4.264-.344 2.363-.966 4.25-1.868 5.66-.902 1.408-2.209 2.46-3.92 3.155-.517-4.445.062-8.413 1.74-11.905 1.536-3.198 3.713-5.414 6.532-6.647l.341-.143c.25-.1.535.015.644.262zm-17.127-4.495l.026.014 6.022 3.614c2.118 1.271 3.34 3.467 3.457 5.762-.32.511-.619 1.056-.896 1.633-.676 1.407-1.173 2.892-1.492 4.454l-.246.362v-.742c0-2.25-.999-4.377-2.717-5.813l-.228-.184c1.124 2.338 1.758 4.337 1.9 5.996.142 1.66.236 3.218.283 4.676-4.402-2.327-7.078-5.38-8.026-9.157-.907-3.609-.493-7.076 1.242-10.403.128-.245.43-.34.675-.212z" transform="translate(-375) translate(375)"/>
            </g>
        </g>
    </g>
</svg>
