<svg width="35" height="35" viewBox="0 0 35 35" xmlns="http://www.w3.org/2000/svg">
    <g fill="none" fill-rule="evenodd">
        <path d="M32.083 17.5c0 8.057-6.527 14.583-14.581 14.583-8.056 0-14.585-6.526-14.585-14.583 0-8.053 6.529-14.583 14.585-14.583 8.054 0 14.581 6.53 14.581 14.583" fill="#963"/>
        <path d="M17.5 5.104c-6.846 0-12.396 5.55-12.396 12.395 0 6.847 5.55 12.397 12.397 12.397 6.845 0 12.395-5.55 12.395-12.397 0-6.845-5.55-12.395-12.395-12.395zm0 1.458c6.04 0 10.938 4.897 10.938 10.937 0 6.041-4.897 10.939-10.937 10.939-6.042 0-10.939-4.897-10.939-10.939 0-6.04 4.898-10.936 10.939-10.936z" fill="#FEFEFE" fill-rule="nonzero"/>
        <path d="M19.415 10.063c.242 0 .438.195.438.437v7.794l4.162 5.354c.21.27.042.657-.283.702l-.062.004H11.667a.437.437 0 0 1-.346-.706l4.162-5.354V10.5c0-.221.165-.405.379-.434l.06-.004zm-3.082 11.52a.583.583 0 1 0 0 1.167.583.583 0 0 0 0-1.167zm2.48-2.333c-.564 0-1.021.47-1.021 1.05 0 .58.457 1.05 1.02 1.05.564 0 1.021-.47 1.021-1.05 0-.58-.457-1.05-1.02-1.05zm.165-8.313h-2.62v3.646h2.62v-3.646z" fill="#FFF" fill-rule="nonzero"/>
    </g>
</svg>
