<svg width="35" height="35" xmlns="http://www.w3.org/2000/svg">
    <g fill="none" fill-rule="evenodd">
        <path d="M32.083 17.5c0 8.057-6.527 14.583-14.581 14.583-8.056 0-14.585-6.526-14.585-14.583 0-8.053 6.529-14.583 14.585-14.583 8.054 0 14.581 6.53 14.581 14.583" fill="#9F7B55"/>
        <path d="M29.167 17.5c0 6.443-5.224 11.667-11.666 11.667-6.444 0-11.668-5.224-11.668-11.668 0-6.442 5.224-11.666 11.668-11.666 6.442 0 11.666 5.224 11.666 11.666z" stroke="#FEFEFE" stroke-width="2.5"/>
        <path d="M22.167 15.458c0 3.06-2.22 5.542-4.959 5.542-2.739 0-4.958-2.482-4.958-5.542 0-3.06 2.219-5.541 4.958-5.541 2.738 0 4.959 2.481 4.959 5.541" fill="#FEFEFE"/>
        <path d="m16.263 16.49-1.216-1.323h-3.714c-1.749 0-3.166 1.566-3.166 3.5s1.417 3.5 3.166 3.5h12.933c1.418 0 2.567-1.271 2.567-2.839s-1.15-2.838-2.567-2.838h-8.003z" fill="#FEFEFE"/>
        <path d="M14.164 15.167c1.049 0 1.87.422 1.914 1.545h-1.042c.006-.472-.285-.85-.872-.85-.695 0-.872 1.011-.872 1.638s.177 1.638.872 1.638c.587 0 .878-.378.872-.85h1.042c-.044 1.123-.865 1.545-1.914 1.545-1.32 0-1.914-1.024-1.914-2.333 0-1.31.594-2.333 1.914-2.333zm4.542 0c1.51 0 2.192 1.011 2.192 2.333 0 1.322-.683 2.333-2.192 2.333-1.51 0-2.192-1.011-2.192-2.333 0-1.322.682-2.333 2.192-2.333zm3.404 2.745c.319 0 .627.148.627.502 0 .442-.624.78-.882 1.068h.895v.258h-1.29v-.364c.166-.179.882-.701.882-.97 0-.13-.092-.235-.224-.235-.147 0-.229.145-.229.276h-.402c-.014-.37.284-.535.623-.535zm-3.404-2.05c-.967 0-1.15.868-1.15 1.638 0 .77.183 1.638 1.15 1.638.966 0 1.15-.868 1.15-1.638 0-.77-.184-1.638-1.15-1.638z" fill="#9F7B55" fill-rule="nonzero"/>
    </g>
</svg>
