<svg width="35" height="35" xmlns="http://www.w3.org/2000/svg">
    <g fill="none" fill-rule="evenodd">
        <path d="M32.083 17.5c0 8.057-6.526 14.583-14.582 14.583-8.055 0-14.584-6.526-14.584-14.583 0-8.052 6.53-14.583 14.584-14.583 8.056 0 14.582 6.531 14.582 14.583" fill="#FAA61A"/>
        <path d="M28.949 17.5c0 6.323-5.127 11.45-11.451 11.45-6.32 0-11.448-5.127-11.448-11.45 0-6.323 5.127-11.447 11.448-11.447 6.324 0 11.45 5.124 11.45 11.447z" stroke="#FEFEFE" stroke-width="2.5"/>
        <path d="M18.767 17.49a1.176 1.176 0 1 1-2.355 0 1.178 1.178 0 0 1 2.355 0" fill="#FEFEFE"/>
        <path d="M18.731 17.49a1.14 1.14 0 0 1-1.143 1.14c-.63 0-1.144-.509-1.144-1.14 0-.63.514-1.138 1.144-1.138a1.14 1.14 0 0 1 1.143 1.137zm-1.2 3.421c4.825.006 8.744-1.534 8.747-3.451 0-1.917-3.907-3.475-8.734-3.483-4.825-.01-8.74 1.537-8.744 3.45-.003 1.917 3.907 3.475 8.732 3.484zm-3.013-1.743c2.402 4.171 5.695 6.787 7.368 5.835 1.664-.952 1.07-5.109-1.326-9.283-2.402-4.174-5.698-6.788-7.368-5.835-1.664.952-1.073 5.109 1.326 9.283zm-.011-3.425c-2.364 4.192-2.926 8.358-1.253 9.295 1.676.938 4.951-1.702 7.32-5.897 2.361-4.194 2.92-8.354 1.244-9.292-1.67-.937-4.948 1.702-7.311 5.894z" stroke="#FEFEFE" stroke-width="1.764"/>
    </g>
</svg>
