<svg width="35" height="35" xmlns="http://www.w3.org/2000/svg">
    <g fill="none" fill-rule="evenodd">
        <path d="M32.083 17.5c0 8.057-6.526 14.583-14.582 14.583-8.055 0-14.584-6.526-14.584-14.583 0-8.052 6.53-14.583 14.584-14.583 8.056 0 14.582 6.531 14.582 14.583" fill="#BA9DCA"/>
        <path d="M28.949 17.5c0 6.323-5.127 11.45-11.451 11.45-6.32 0-11.448-5.127-11.448-11.45 0-6.323 5.127-11.447 11.448-11.447 6.324 0 11.45 5.124 11.45 11.447z" stroke="#FEFEFE" stroke-width="2.5"/>
        <path d="M23.092 18.716h-.879c-.12.446-.297.864-.526 1.255l.623.623.335.338-.335.35-1.367 1.378-.335-.338-.65-.635c-.39.23-.811.406-1.243.527V23.578h-2.432v-1.379a4.348 4.348 0 0 1-1.24-.526l-.973.973-.353-.338-1.026-1.026-.338-.338.338-.338.623-.62a5.143 5.143 0 0 1-.529-1.256H11.421V16.284H12.785c.123-.446.297-.864.53-1.255l-.974-.973.338-.338 1.026-1.026.338-.338.97.973c.394-.229.812-.405 1.259-.514v-1.391h2.443v1.379c.447.12.864.297 1.258.512l.635-.635.335-.338 1.367 1.378.335.338-.335.338-.623.635c.23.391.406.809.526 1.255H23.577v2.432h-.485zm-5.591.973a2.197 2.197 0 0 1-2.188-2.19c0-1.2.985-2.188 2.188-2.188 1.202 0 2.187.988 2.187 2.188 0 1.202-.985 2.19-2.187 2.19z" stroke="#FEFEFE" stroke-width="1.26"/>
    </g>
</svg>
