<svg width="35" height="35" viewBox="0 0 35 35" xmlns="http://www.w3.org/2000/svg" xmlns:xlink="http://www.w3.org/1999/xlink">
    <defs>
        <path id="a" d="M0 0h29.167v29.167H0z"/>
    </defs>
    <g fill="none" fill-rule="evenodd">
        <g transform="translate(2.917 2.917)">
            <mask id="b" fill="#fff">
                <use xlink:href="#a"/>
            </mask>
            <path d="M29.167 14.582c0 8.057-6.528 14.585-14.582 14.585C6.53 29.167 0 22.639 0 14.582 0 6.528 6.53-.003 14.585-.003c8.054 0 14.582 6.531 14.582 14.585" fill="#05529A" mask="url(#b)"/>
        </g>
        <path d="M17.5 5.1C10.65 5.1 5.1 10.65 5.1 17.499c0 6.85 5.552 12.4 12.401 12.4 6.848 0 12.4-5.551 12.4-12.4 0-6.848-5.552-12.4-12.4-12.4zm0 1.458c6.043 0 10.941 4.899 10.941 10.94 0 6.044-4.898 10.943-10.94 10.943-6.045 0-10.944-4.898-10.944-10.942 0-6.043 4.9-10.941 10.943-10.941z" fill="#FEFEFE" fill-rule="nonzero"/>
        <path fill="#FEFEFE" d="M16.577 9.917h2.843l-2.698 6.596 3.695-2.032-1.921 8.001 1.07-.478-2.405 3.663-.998-4.364.899.978.827-5.041L14 19.27z"/>
    </g>
</svg>
