<svg xmlns="http://www.w3.org/2000/svg" width="60" height="60" viewBox="0 0 60 60">
    <g fill="none" fill-rule="evenodd">
        <g>
            <g>
                <g>
                    <g>
                        <path fill="#773593" d="M50.03 24.935c0 13.7-11.1 24.805-24.8 24.805C11.53 49.74.425 38.635.425 24.935.425 11.24 11.53.13 25.23.13s24.8 11.11 24.8 24.805" transform="translate(-886.000000, -852.000000) translate(79.000000, 852.000000) translate(375.000000, 0.000000) translate(432.000000, 0.000000) translate(5.000000, 5.000000)"/>
                        <path stroke="#FEFEFE" stroke-width="1.745" d="M45.074 24.935c0 10.96-8.886 19.85-19.85 19.85-10.956 0-19.846-8.89-19.846-19.85S14.268 5.09 25.224 5.09c10.964 0 19.85 8.885 19.85 19.845z" transform="translate(-886.000000, -852.000000) translate(79.000000, 852.000000) translate(375.000000, 0.000000) translate(432.000000, 0.000000) translate(5.000000, 5.000000)"/>
                        <path fill="#FEFEFE" d="M23.274 21.504H19.01c-1.095 0-1.69-.395-1.69-1.755 0-1.225.666-1.55 2.38-1.885l1.225-.26c3.675-.795 2.65-4.565 5.46-4.565 1.06 0 1.92.46 1.92 2.25v18.785c0 1.725-.664 2.915-2.514 2.915-1.855 0-2.515-1.19-2.515-2.915v-12.57z" transform="translate(-886.000000, -852.000000) translate(79.000000, 852.000000) translate(375.000000, 0.000000) translate(432.000000, 0.000000) translate(5.000000, 5.000000)"/>
                        <path stroke="#773593" d="M23.274 21.504H19.01c-1.095 0-1.69-.395-1.69-1.755 0-1.225.666-1.55 2.38-1.885l1.225-.26c3.675-.795 2.65-4.565 5.46-4.565 1.06 0 1.92.46 1.92 2.25v18.785c0 1.725-.664 2.915-2.514 2.915-1.855 0-2.515-1.19-2.515-2.915v-12.57z" transform="translate(-886.000000, -852.000000) translate(79.000000, 852.000000) translate(375.000000, 0.000000) translate(432.000000, 0.000000) translate(5.000000, 5.000000)"/>
                    </g>
                </g>
            </g>
        </g>
    </g>
</svg>
