<svg width="21" height="22" viewBox="0 0 21 22" xmlns="http://www.w3.org/2000/svg">
    <path d="m13.795 12.743 5.64 5.641.019-2.916 1.367-.008-.026 4.284.21.21-.212.212-.004.814-5.52.032.008-1.368 3.451-.021-5.906-5.907.973-.973zm-5.32 0 .973.973-5.911 5.91 2.975.018.008 1.368L1 20.98l-.033-5.52 1.368.008.02 3.394 6.12-6.119zM15.269.988l5.52.032.004.813.213.212-.211.21.026 4.285-1.367-.008-.018-2.918-5.641 5.643-.973-.973 5.906-5.908-3.451-.02-.008-1.368zm-8.749 0-.008 1.368-2.975.017 5.91 5.91-.972.974-6.12-6.12-.02 3.395-1.368.008L1 1.02 6.52.988z" fill="#8CA0B3" fill-rule="evenodd"/>
</svg>
