<svg xmlns="http://www.w3.org/2000/svg" width="12" height="12" viewBox="0 0 12 12">
    <g fill="none" fill-rule="evenodd">
        <g fill="#3DA499">
            <g>
                <g>
                    <g>
                        <path d="M10.2 5.4H6.6V1.8c0-.36-.24-.6-.6-.6s-.6.24-.6.6v3.6H1.8c-.36 0-.6.24-.6.6s.24.6.6.6h3.6v3.6c0 .36.24.6.6.6s.6-.24.6-.6V6.6h3.6c.36 0 .6-.24.6-.6s-.24-.6-.6-.6z" transform="translate(-506.000000, -1174.000000) translate(79.000000, 852.000000) translate(375.000000, 210.000000) translate(50.000000, 110.000000) translate(2.000000, 2.000000)"/>
                    </g>
                </g>
            </g>
        </g>
    </g>
</svg>
