<svg xmlns="http://www.w3.org/2000/svg" width="16" height="16" viewBox="0 0 16 16">
    <g fill="none" fill-rule="evenodd">
        <g>
            <g>
                <g transform="translate(-504.000000, -1172.000000) translate(79.000000, 852.000000) translate(375.000000, 210.000000) translate(50.000000, 110.000000)">
                    <circle cx="8" cy="8" r="8" fill="#CCE7CC"/>
                    <g fill="#3DA499">
                        <path d="M10.2 5.4H6.6V1.8c0-.36-.24-.6-.6-.6s-.6.24-.6.6v3.6H1.8c-.36 0-.6.24-.6.6s.24.6.6.6h3.6v3.6c0 .36.24.6.6.6s.6-.24.6-.6V6.6h3.6c.36 0 .6-.24.6-.6s-.24-.6-.6-.6z" transform="translate(2.000000, 2.000000)"/>
                    </g>
                </g>
            </g>
        </g>
    </g>
</svg>
