<svg width="10" height="17" viewBox="0 0 10 17" xmlns="http://www.w3.org/2000/svg">
    <g fill="none" fill-rule="evenodd">
        <path d="M4.535 12.94c.509 0 .969.178 1.313.537.327.342.497.778.497 1.253 0 .478-.176.914-.512 1.25-.345.344-.798.512-1.298.512-.512 0-.972-.17-1.314-.529a1.753 1.753 0 0 1-.487-1.233c0-.466.16-.895.472-1.236.341-.373.808-.555 1.329-.555zM4.828 0C6.2 0 7.343.423 8.19 1.278c.844.853 1.26 1.994 1.26 3.365 0 .862-.197 1.68-.59 2.437-.35.675-.947 1.404-1.817 2.23L6.8 9.54c-.454.381-.703.93-.741 1.711l-.006.219v1H2.857l.044-1.33c.036-.747.158-1.382.379-1.91.227-.546.643-1.12 1.246-1.746l.542-.544.263-.27.218-.231.172-.192.124-.151.045-.06c.126-.18.224-.378.295-.598a2.56 2.56 0 0 0 .104-.775c0-.576-.134-.971-.382-1.238-.232-.25-.569-.38-1.08-.38-.539 0-.924.137-1.207.401-.237.221-.374.512-.41.917l-.01.18-.016.983H0L.05 4.22C.128 3.009.6 1.99 1.452 1.22 2.352.406 3.495 0 4.828 0z" fill="#666"/>
        <path d="M4.535 13.94c.247 0 .444.076.59.229.147.153.22.34.22.561a.736.736 0 0 1-.22.542.756.756 0 0 1-.47.214l-.12.006-.123-.006a.727.727 0 0 1-.468-.214.754.754 0 0 1-.21-.542c0-.22.07-.408.21-.561.14-.153.337-.23.59-.23zM4.828 1c1.12 0 2.003.327 2.651.981.648.655.972 1.542.972 2.662 0 .703-.16 1.362-.479 1.977-.319.615-.924 1.333-1.816 2.153-.683.575-1.05 1.39-1.098 2.448l-.006.248H3.89l.01-.281.017-.267c.044-.52.14-.956.286-1.308.195-.468.615-1.02 1.26-1.655l.17-.169.442-.45.237-.254.193-.218.079-.094.124-.163c.185-.263.328-.553.43-.869.1-.316.15-.675.15-1.079 0-.814-.216-1.453-.649-1.919-.39-.419-.918-.65-1.584-.691l-.227-.007-.23.007c-.676.04-1.23.26-1.66.662-.43.401-.673.93-.726 1.588l-.011.223H1.039l.009-.242.021-.235c.102-.848.453-1.543 1.054-2.086C2.833 1.32 3.733 1 4.828 1z" fill="#FFF" fill-rule="nonzero"/>
    </g>
</svg>
