<svg width="40" height="40" viewBox="0 0 40 40" xmlns="http://www.w3.org/2000/svg">
    <g fill="none" fill-rule="evenodd">
        <path fill="#FFF" d="M3.333 3.333h33.333v33.333H3.333z"/>
        <path d="m22.603 21.66 5.53 5.53V24.32h1.333v4.202l.208.208-.208.206v.765h-5.38V28.37h3.34l-5.766-5.766.943-.943zm-5.206 0 .943.943-5.766 5.765h2.869v1.334h-5.38v-5.38h1.332v3.34l6.002-6.002zm12.07-11.339v.764l.207.208-.208.206v4.203h-1.333v-2.87l-5.53 5.532-.943-.943 5.765-5.767h-3.34v-1.333h5.381zm-14.024 0v1.334h-2.869l5.766 5.766-.943.943-6.003-6.004.001 3.342h-1.333v-5.38h5.38z" fill="#000"/>
    </g>
</svg>
