<svg xmlns="http://www.w3.org/2000/svg" width="50" height="50" viewBox="0 0 50 50">
    <g fill="none" fill-rule="evenodd">
        <g fill="#252530">
            <g>
                <g>
                    <path d="M29.236 10.405c.478-.48 1.235-.54 1.787-.144.513.37.705 1.038.482 1.618l-.054.123-4.819 9.638 6.786 2.263c.455.15.798.526.909.994.097.414-.002.847-.263 1.177l-.106.118-13.83 13.83c-.482.482-1.237.54-1.788.145-.513-.37-.705-1.038-.482-1.618l.054-.123 4.82-9.638-6.786-2.263c-.455-.15-.799-.526-.91-.994-.097-.414.003-.847.264-1.176l.105-.119 13.831-13.83zm.552 1.569L16.6 25.162l8.246 2.75-5.27 10.539 13.187-13.186-8.246-2.749 5.271-10.542z" transform="translate(-454.000000, -962.000000) translate(79.000000, 852.000000) translate(375.000000, 110.000000) translate(0.000000, 0.000000)"/>
                </g>
            </g>
        </g>
    </g>
</svg>
