<svg width="30" height="30" xmlns="http://www.w3.org/2000/svg">
    <path d="M15.113 6c2.422 0 4.6 1.14 5.974 3.13 1.368 1.978 1.683 4.484.845 6.7a5.73 5.73 0 0 1-1.055 1.74l-5.285 6.208a.629.629 0 0 1-.958 0l-5.287-6.21a5.724 5.724 0 0 1-1.055-1.741c-.837-2.213-.521-4.719.846-6.697C10.512 7.14 12.69 6 15.113 6zm0 1.259a5.924 5.924 0 0 0-4.94 2.586c-1.132 1.64-1.394 3.71-.702 5.54.172.468.452.925.831 1.365l4.81 5.65 4.808-5.647.003-.003c.38-.44.66-.897.83-1.36a6.014 6.014 0 0 0-.701-5.545 5.923 5.923 0 0 0-4.94-2.586zm0 2.475a3.529 3.529 0 0 1 3.524 3.525 3.528 3.528 0 0 1-3.524 3.524 3.528 3.528 0 0 1-3.525-3.524 3.528 3.528 0 0 1 3.525-3.525zm0 1.259a2.268 2.268 0 0 0-2.266 2.266 2.268 2.268 0 0 0 2.266 2.265 2.268 2.268 0 0 0 2.265-2.265 2.268 2.268 0 0 0-2.265-2.266z" fill="#FFF" fill-rule="evenodd"/>
</svg>
