<svg xmlns="http://www.w3.org/2000/svg" width="20" height="20" viewBox="0 0 20 20">
    <g fill="none" fill-rule="evenodd">
        <g fill="#252530">
            <g>
                <g>
                    <path d="M2.323 14.487l.56-1.787H6.79l.519 1.718c.124.41.501.69.93.69.289 0 .523-.234.523-.524 0-.055-.009-.11-.026-.162L5.782 5.345C5.715 5.14 5.523 5 5.307 5h-.91c-.217 0-.41.141-.476.349l-2.899 9.138c-.08.251.06.52.31.599.047.014.096.022.145.022.387 0 .73-.251.846-.621zM6.44 11.58H3.206l1.582-5.39h.028l1.624 5.39zm5.466-2.041c0-.298-.242-.539-.54-.539H9.366c-.298 0-.54.241-.54.539 0 .298.242.539.54.539h2.002c.297 0 .539-.241.539-.539zm6.234 5.009c0-.31-.251-.56-.56-.56h-4.564l4.66-7.16c.23-.352.352-.764.352-1.184V5.5c0-.276-.224-.5-.5-.5h-4.974c-.31 0-.56.25-.56.56 0 .31.25.56.56.56h4.172v.028l-4.502 6.894c-.26.398-.398.863-.398 1.338v.228c0 .276.223.5.5.5h5.254c.309 0 .56-.25.56-.56z" transform="translate(-664.000000, -1280.000000) translate(79.000000, 852.000000) translate(375.000000, 428.000000) translate(210.000000, 0.000000)"/>
                </g>
            </g>
        </g>
    </g>
</svg>
