<svg width="28" height="28" xmlns="http://www.w3.org/2000/svg">
    <path d="m3.763 20.306.748-2.383H9.72l.693 2.29c.165.547.669.92 1.24.92a.698.698 0 0 0 .663-.913L8.376 8.117a.667.667 0 0 0-.634-.46H6.53a.667.667 0 0 0-.635.465L2.03 20.306a.635.635 0 0 0 .605.828c.517 0 .974-.336 1.128-.828zm5.49-3.876H4.94l2.11-7.187h.036l2.166 7.187zm7.288-2.722a.719.719 0 0 0-.719-.718h-2.67a.719.719 0 1 0 0 1.437h2.67a.719.719 0 0 0 .719-.719zm8.312 6.68a.747.747 0 0 0-.747-.748h-6.085l6.214-9.547c.306-.47.468-1.018.468-1.578v-.192a.667.667 0 0 0-.666-.667h-6.632a.747.747 0 1 0 0 1.494h5.562v.037l-6.002 9.193c-.346.53-.53 1.15-.53 1.783v.304c0 .368.298.667.666.667h7.005a.747.747 0 0 0 .747-.747z" fill="#FFF" fill-rule="evenodd"/>
</svg>
