<svg xmlns="http://www.w3.org/2000/svg" width="60" height="60" viewBox="0 0 60 60">
    <g fill="none" fill-rule="evenodd">
        <g>
            <g>
                <g>
                    <g>
                        <path fill="#7FC241" d="M50.032 25.166c0 13.704-11.1 24.805-24.8 24.805-13.7 0-24.805-11.1-24.805-24.805C.427 11.47 11.53.36 25.232.36c13.7 0 24.8 11.11 24.8 24.806" transform="translate(-778.000000, -852.000000) translate(79.000000, 852.000000) translate(375.000000, 0.000000) translate(324.000000, 0.000000) translate(5.000000, 5.000000)"/>
                        <path stroke="#FEFEFE" stroke-width="2.485" d="M44.705 25.166c0 10.754-8.72 19.48-19.475 19.48S5.75 35.92 5.75 25.165C5.75 14.41 14.475 5.69 25.23 5.69c10.754 0 19.475 8.72 19.475 19.476z" transform="translate(-778.000000, -852.000000) translate(79.000000, 852.000000) translate(375.000000, 0.000000) translate(324.000000, 0.000000) translate(5.000000, 5.000000)"/>
                        <path fill="#FEFEFE" d="M25.287 37.22c2.58 0 5.51-1.134 7.51-4.454 4.184-6.925-7.51-22.22-7.51-22.22s-11.64 15.294-7.46 22.22c2.004 3.32 4.88 4.455 7.46 4.455" transform="translate(-778.000000, -852.000000) translate(79.000000, 852.000000) translate(375.000000, 0.000000) translate(324.000000, 0.000000) translate(5.000000, 5.000000)"/>
                        <path fill="#7FC241" d="M30.737 28.922c0 1.63-1.05 2.95-2.35 2.95-1.295 0-2.35-1.32-2.35-2.95 0-1.63 1.055-2.95 2.35-2.95 1.3 0 2.35 1.32 2.35 2.95" transform="translate(-778.000000, -852.000000) translate(79.000000, 852.000000) translate(375.000000, 0.000000) translate(324.000000, 0.000000) translate(5.000000, 5.000000)"/>
                    </g>
                </g>
            </g>
        </g>
    </g>
</svg>
