<svg xmlns="http://www.w3.org/2000/svg" width="50" height="50" viewBox="0 0 50 50">
    <g fill="none" fill-rule="evenodd">
        <g fill="#252530">
            <g>
                <g>
                    <path d="M39.95 28.293l.005-.001-4.926-10.747 1.195-.595-.447-.895-1.165.58-.157-.343c-.116-.251-.412-.361-.663-.246-.11.05-.197.137-.246.246l-.141.307c-.847-.394-1.77-.598-2.705-.599h-4.2v-1h1v-1h-.86l.36-1.438c.276-1.105-.396-2.224-1.5-2.5-1.105-.276-2.224.396-2.5 1.5-.082.328-.082.672 0 1L23.36 14h-.86v1h1v1h-4.197c-.936.001-1.86.206-2.708.6l-.14-.307c-.116-.25-.412-.361-.663-.246-.11.05-.197.137-.246.246l-.158.344-1.164-.583-.447.896 1.194.597-4.925 10.745c-.03.065-.046.136-.046.208.002 1.932 1.568 3.498 3.5 3.5h5c1.932-.002 3.498-1.568 3.5-3.5-.001-.072-.018-.142-.05-.207l-4.939-10.787c.718-.333 1.5-.506 2.292-.506H23.5v18.293L21.793 37H20c-1.38.002-2.498 1.12-2.5 2.5 0 .276.224.5.5.5h14c.276 0 .5-.224.5-.5-.002-1.38-1.12-2.498-2.5-2.5h-1.793L26.5 35.293V17h4.2c.792 0 1.574.173 2.292.506l-4.946 10.786c-.03.065-.046.136-.046.208.002 1.932 1.568 3.498 3.5 3.5h5c1.932-.002 3.498-1.568 3.5-3.5-.001-.072-.018-.142-.05-.207zM18.5 31h-5c-1.188-.001-2.21-.836-2.45-2h9.9c-.239 1.164-1.262 1.999-2.45 2zm2.221-3h-9.442l4.593-10.02c.084.022.172.022.256 0L20.721 28zm3.443-16.592c.389-.462 1.08-.52 1.541-.131.048.04.092.084.132.131.202.258.273.594.193.911L25.61 14h-1.22l-.42-1.68c-.08-.318-.009-.654.194-.912zM24.5 16v-1h1v1h-1zm1 1v18h-1V17h1zM30 38c.636.001 1.202.401 1.415 1h-12.83c.213-.599.78-.999 1.415-1h10zm-3.207-1h-3.586l1-1h1.586l1 1zm7.078-19.019c.083.03.173.026.253-.01L38.721 28h-9.442l4.592-10.02zm2.629 13.02h-5c-1.188-.002-2.21-.837-2.45-2h9.9c-.239 1.163-1.262 1.998-2.45 2z" transform="translate(-654.000000, -962.000000) translate(79.000000, 852.000000) translate(375.000000, 110.000000) translate(200.000000, 0.000000)"/>
                </g>
            </g>
        </g>
    </g>
</svg>
