<svg xmlns="http://www.w3.org/2000/svg" width="50" height="50" viewBox="0 0 50 50">
    <g fill="none" fill-rule="evenodd">
        <g fill="#000" fill-rule="nonzero" stroke="#FFF" stroke-width=".4">
            <g>
                <g>
                    <path d="M25.188 10c4.038 0 7.667 1.901 9.958 5.216 2.279 3.298 2.805 7.473 1.407 11.169-.37.999-.962 1.977-1.758 2.899h0L25.986 39.63c-.199.234-.49.369-.798.369-.307 0-.6-.135-.799-.37h0l-8.81-10.349c-.793-.917-1.386-1.896-1.76-2.903-1.394-3.689-.868-7.864 1.411-11.162C17.52 11.901 21.15 10 25.188 10zm0 2.098c-3.339 0-6.34 1.571-8.232 4.311-1.887 2.731-2.325 6.183-1.172 9.234.288.778.754 1.54 1.386 2.273h0l8.018 9.417 8.012-9.411.005-.006c.633-.733 1.099-1.495 1.384-2.266 1.156-3.058.718-6.51-1.17-9.24-1.892-2.74-4.893-4.312-8.231-4.312zm0 4.126c3.239 0 5.874 2.635 5.874 5.874 0 3.24-2.635 5.874-5.874 5.874-3.24 0-5.874-2.635-5.874-5.874 0-3.24 2.635-5.874 5.874-5.874zm0 2.098c-2.082 0-3.776 1.694-3.776 3.776s1.694 3.776 3.776 3.776 3.776-1.694 3.776-3.776-1.694-3.776-3.776-3.776z" transform="translate(-554.000000, -962.000000) translate(79.000000, 852.000000) translate(375.000000, 110.000000) translate(100.000000, 0.000000)"/>
                </g>
            </g>
        </g>
    </g>
</svg>
