<svg xmlns="http://www.w3.org/2000/svg" width="20" height="20" viewBox="0 0 20 20">
    <g fill="none" fill-rule="evenodd">
        <g fill="#252530">
            <g>
                <g>
                    <path d="M16.5 2c.276 0 .5.224.5.5v10c0 .029-.003.058-.007.086L17 12.5c0 .037-.004.073-.012.108-.004.02-.01.04-.016.058l-.013.032-.02.041c-.006.012-.014.024-.022.036-.018.028-.04.054-.063.079l.042-.049-.03.036-.012.013-5 5-.013.012-.036.03-.03.021c-.012.008-.024.016-.036.022l-.04.02-.033.013c-.019.006-.038.012-.058.016l-.018.004c-.032.005-.061.008-.09.008h-8c-.276 0-.5-.224-.5-.5v-15c0-.276.224-.5.5-.5zM16 3H4v14h7v-4.5c0-.245.177-.45.41-.492L11.5 12H16V3zm-.708 10H12v3.292L15.292 13zM13.5 9c.276 0 .5.224.5.5 0 .245-.177.45-.41.492L13.5 10h-7c-.276 0-.5-.224-.5-.5 0-.245.177-.45.41-.492L6.5 9h7zm0-3c.276 0 .5.224.5.5 0 .245-.177.45-.41.492L13.5 7h-7c-.276 0-.5-.224-.5-.5 0-.245.177-.45.41-.492L6.5 6h7zm-5 7c.276 0 .5.224.5.5 0 .245-.177.45-.41.492L8.5 14h-2c-.276 0-.5-.224-.5-.5 0-.245.177-.45.41-.492L6.5 13h2z" transform="translate(-594.000000, -1280.000000) translate(79.000000, 852.000000) translate(375.000000, 428.000000) translate(140.000000, 0.000000)"/>
                </g>
            </g>
        </g>
    </g>
</svg>
