<svg xmlns="http://www.w3.org/2000/svg" width="60" height="60" viewBox="0 0 60 60">
    <g fill="none" fill-rule="evenodd">
        <g>
            <g>
                <g>
                    <g>
                        <path fill="#626164" d="M50.394 24.832c0 13.705-11.1 24.805-24.8 24.805-13.7 0-24.806-11.1-24.806-24.805C.788 11.137 11.893.027 25.593.027s24.8 11.11 24.8 24.805" transform="translate(-483) translate(375) translate(108) translate(5 5)"/>
                        <path stroke="#FEFEFE" stroke-width="2.495" d="M45.062 24.832c0 10.755-8.72 19.475-19.475 19.475-10.75 0-19.47-8.72-19.47-19.475s8.72-19.47 19.47-19.47c10.755 0 19.475 8.715 19.475 19.47z" transform="translate(-483) translate(375) translate(108) translate(5 5)"/>
                        <path fill="#FEFEFE" d="M22.082 32.208c0 1.45-1.175 2.625-2.625 2.625-1.455 0-2.63-1.175-2.63-2.625 0-1.455 1.175-2.63 2.63-2.63 1.45 0 2.625 1.175 2.625 2.63M34.517 32.272c0 1.45-1.175 2.625-2.625 2.625-1.454 0-2.63-1.175-2.63-2.625s1.175-2.63 2.63-2.63c1.45 0 2.625 1.18 2.625 2.63M14.604 19.1s.756-3.89 5.566-2.35c0 0 4.464-4.875 7.51-.275 0 0 3.45-2.535 4.8 1.265 0 0 2.915-1.725 4.015 1.36h-21.89z" transform="translate(-483) translate(375) translate(108) translate(5 5)"/>
                        <path fill="#FEFEFE" d="M19.545 27.506c2.19 0 4.28 1.776 4.28 3.965l3.62.02c0-2.19 2.095-3.97 4.275-3.97 1.28 0 2.41.61 3.135 1.54l2.065-8.04H14.395l2.02 8.02c.725-.934 1.855-1.535 3.13-1.535" transform="translate(-483) translate(375) translate(108) translate(5 5)"/>
                    </g>
                </g>
            </g>
        </g>
    </g>
</svg>
