<svg xmlns="http://www.w3.org/2000/svg" width="60" height="60" viewBox="0 0 60 60">
    <g fill="none" fill-rule="evenodd">
        <g>
            <g>
                <g>
                    <g>
                        <path fill="#EC1C2D" d="M50.394 24.982c0 13.7-11.1 24.805-24.8 24.805-13.7 0-24.806-11.105-24.806-24.805C.788 11.287 11.893.177 25.593.177s24.8 11.11 24.8 24.805" transform="translate(-591) translate(375) translate(216) translate(5 5)"/>
                        <path stroke="#FEFEFE" stroke-width="2.495" d="M45.062 24.982c0 10.755-8.72 19.475-19.475 19.475-10.75 0-19.47-8.72-19.47-19.475s8.72-19.47 19.47-19.47c10.755 0 19.475 8.715 19.475 19.47z" transform="translate(-591) translate(375) translate(216) translate(5 5)"/>
                        <path fill="#FEFEFE" d="M35.547 28.434c0-3.625-1.02-6.965-3.06-10.015-1.835-2.76-4.31-5.01-7.415-6.74.4 1.08.6 2.11.6 3.085 0 1.48-.445 2.84-1.33 4.085-.724 1.015-1.68 1.87-2.87 2.575-1.95 1.136-3.295 2.116-4.035 2.95-1.17 1.316-1.755 2.956-1.755 4.93 0 2.63.96 4.8 2.88 6.51 1.905 1.685 4.24 2.54 6.985 2.55h-.005c-1.58-.02-2.94-.594-4.07-1.74-1.155-1.16-1.73-2.54-1.73-4.135 0-1.24.42-2.37 1.28-3.374.85-.86 1.71-1.725 2.576-2.59 1.044-1.165 1.715-2.476 2.015-3.935.28 1.42.934 2.7 1.97 3.855.865.875 1.735 1.75 2.61 2.625.864 1.024 1.3 2.165 1.3 3.42 0 1.584-.58 2.96-1.726 4.13-1.005 1.02-2.19 1.595-3.555 1.72 2.486-.136 4.63-1.11 6.426-2.936 1.94-1.975 2.91-4.3 2.91-6.97" transform="translate(-591) translate(375) translate(216) translate(5 5)"/>
                        <path fill="#FEFEFE" d="M26.638 38.002c.295-.245.445-.55.445-.896 0-.404-.155-.74-.465-.995-.29-.17-.58-.344-.875-.53-.305-.195-.46-.425-.46-.69 0-.184.04-.36.11-.514.06-.116.15-.256.27-.406-.515.166-.935.5-1.265.996-.34.51-.51 1.1-.51 1.764 0 .45.155.835.475 1.15.32.316.71.475 1.17.48.02 0 .04.006.06.006.4-.005.75-.125 1.045-.365" transform="translate(-591) translate(375) translate(216) translate(5 5)"/>
                    </g>
                </g>
            </g>
        </g>
    </g>
</svg>
