<svg xmlns="http://www.w3.org/2000/svg" width="31" height="30" viewBox="0 0 31 30">
    <path fill="#FFF" fill-rule="evenodd" d="M18.506 6.243c.287-.288.741-.324 1.073-.086.307.222.423.622.289.97l-.032.074-2.892 5.783 4.071 1.358c.274.09.48.316.546.596.058.248-.001.509-.158.706l-.063.071-8.299 8.299c-.289.288-.742.323-1.072.086-.308-.222-.423-.622-.29-.97l.033-.074 2.892-5.783-4.072-1.358c-.273-.09-.479-.316-.545-.596-.059-.249 0-.509.158-.706l.063-.071 8.298-8.299zm.332.941l-7.913 7.913 4.948 1.65-3.163 6.324 7.913-7.912-4.948-1.65 3.163-6.325z"/>
</svg>
