<svg width="20" height="20" viewBox="0 0 20 20" xmlns="http://www.w3.org/2000/svg">
    <path d="M14.215 12.48c.941 0 1.705.77 1.705 1.72s-.764 1.72-1.705 1.72c-.77 0-1.437-.52-1.64-1.257l-.017-.059H4.08v-.808h8.478l.016-.059a1.707 1.707 0 0 1 1.641-1.257zM10 8.48c.77 0 1.437.52 1.64 1.257l.017.059h4.263v.808h-4.263l-.016.059A1.707 1.707 0 0 1 10 11.92c-.77 0-1.437-.52-1.64-1.257l-.017-.059H4.08v-.808h4.263l.016-.059A1.707 1.707 0 0 1 10 8.48zm-4.215-4.4c.77 0 1.437.52 1.64 1.257l.017.059h8.478v.808H7.442l-.016.059A1.707 1.707 0 0 1 5.785 7.52c-.941 0-1.705-.77-1.705-1.72s.764-1.72 1.705-1.72z" fill="#FFF" fill-rule="evenodd"/>
</svg>
