<svg xmlns="http://www.w3.org/2000/svg" width="31" height="30" viewBox="0 0 31 30">
    <path fill="#FFF" fill-rule="evenodd" d="M24.935 16.976h.002l-2.955-6.45.717-.356-.268-.537-.699.348-.095-.206c-.069-.15-.247-.217-.397-.148-.066.03-.118.083-.148.148l-.084.184c-.509-.236-1.063-.358-1.623-.359h-2.52V9h.6v-.6h-.516l.216-.863c.165-.663-.238-1.334-.9-1.5-.663-.165-1.335.238-1.5.9-.05.197-.05.403 0 .6l.215.863h-.515V9h.6v.6h-2.519c-.56 0-1.115.123-1.624.36l-.085-.184c-.069-.15-.247-.217-.397-.148-.066.03-.118.083-.148.148l-.094.206-.7-.35-.267.538.716.358-2.955 6.447c-.018.04-.027.082-.027.125.001 1.16.94 2.099 2.1 2.1h3c1.159-.001 2.098-.94 2.1-2.1-.001-.043-.011-.085-.03-.124l-2.964-6.473c.431-.2.9-.303 1.375-.303h2.519v10.976L14.04 22.2h-1.076c-.828.001-1.5.672-1.5 1.5 0 .166.134.3.3.3h8.4c.165 0 .3-.134.3-.3-.001-.828-.672-1.499-1.5-1.5h-1.076l-1.024-1.024V10.2h2.52c.475 0 .944.104 1.375.303l-2.968 6.472c-.018.04-.027.082-.027.125.001 1.16.94 2.099 2.1 2.1h3c1.159-.001 2.098-.94 2.1-2.1 0-.043-.011-.085-.03-.124zM12.065 18.6h-3c-.713 0-1.327-.502-1.47-1.2h5.94c-.144.698-.758 1.2-1.47 1.2zm1.332-1.8H7.732l2.756-6.012c.05.013.103.013.154 0l2.755 6.012zm2.066-9.955c.234-.277.648-.313.925-.079.028.024.055.05.079.079.121.154.164.356.116.547L16.33 8.4h-.73l-.253-1.008c-.048-.19-.005-.393.116-.547zm.202 2.755V9h.6v.6h-.6zm.6.6V21h-.6V10.2h.6zm2.7 12.6c.381 0 .72.24.848.6h-7.697c.128-.36.467-.6.849-.6h6zm-1.924-.6h-2.152l.6-.6h.952l.6.6zm4.246-11.411c.05.017.104.015.152-.007l2.758 6.018h-5.665l2.755-6.011zm1.578 7.811h-3c-.713 0-1.327-.502-1.47-1.2h5.94c-.144.698-.758 1.2-1.47 1.2z"/>
</svg>
