<?xml version="1.0" encoding="UTF-8"?>
<svg width="14px" height="14px" viewBox="0 0 14 14" version="1.1" xmlns="http://www.w3.org/2000/svg" xmlns:xlink="http://www.w3.org/1999/xlink">
    <title>Combined Shape</title>
    <g id="Key-pages--emission-by-country" stroke="none" stroke-width="1" fill="none" fill-rule="evenodd">
        <g id="M-H1-Results" transform="translate(-283.000000, -526.000000)" fill="#8CA0B3">
            <g id="Group-2" transform="translate(160.000000, 284.000000) rotate(-270.000000) translate(-160.000000, -284.000000) translate(-109.000000, 134.000000)">
                <path d="M511.268817,20.9877117 L516.788791,21.0203846 L516.821463,26.540358 L515.453621,26.5322617 L515.429664,22.3800308 L511.276913,22.3555539 L511.268817,20.9877117 Z M524.519973,20.9877117 L524.511877,22.3555539 L520.359159,22.3800634 L520.335169,26.5322617 L518.967327,26.540358 L519,21.0203846 L524.519973,20.9877117 Z M516.821463,13.459642 L516.788791,18.9796154 L511.268817,19.0122883 L511.276913,17.6444461 L515.428956,17.6197152 L515.453621,13.4677383 L516.821463,13.459642 Z M518.967327,13.459642 L520.335169,13.4677383 L520.359867,17.6196826 L524.511877,17.6444461 L524.519973,19.0122883 L519,18.9796154 L518.967327,13.459642 Z" id="Combined-Shape"></path>
            </g>
        </g>
    </g>
</svg>